<svg width="24" height="24" viewBox="0 0 24 24" fill="none" xmlns="http://www.w3.org/2000/svg">
<g id="outline / wallet">
<path id="wallet" fill-rule="evenodd" clip-rule="evenodd" d="M3.0002 3.79751C2.42343 3.79751 1.8002 4.35551 1.8002 5.24751V18.7475C1.8002 19.6395 2.42343 20.1975 3.0002 20.1975H21.0002C21.577 20.1975 22.2002 19.6395 22.2002 18.7475V15.8475H17.0003C14.874 15.8475 13.1503 14.1238 13.1503 11.9975C13.1503 9.87122 14.874 8.14751 17.0003 8.14751H22.2002V5.24751C22.2002 4.35551 21.577 3.79751 21.0002 3.79751H3.0002ZM23.8002 8.14751V5.24751C23.8002 3.65423 22.6326 2.19751 21.0002 2.19751H3.0002C1.36782 2.19751 0.200195 3.65423 0.200195 5.24751V18.7475C0.200195 20.3408 1.36782 21.7975 3.0002 21.7975H21.0002C22.6326 21.7975 23.8002 20.3408 23.8002 18.7475V15.8475H23.8503V8.14751H23.8002ZM16.0002 11.9475C16.0002 11.4781 16.3808 11.0975 16.8502 11.0975H18.1502C18.6197 11.0975 19.0002 11.4781 19.0002 11.9475C19.0002 12.417 18.6197 12.7975 18.1502 12.7975H16.8502C16.3808 12.7975 16.0002 12.417 16.0002 11.9475ZM14.8503 11.9975C14.8503 10.8101 15.8129 9.84751 17.0003 9.84751H22.1503V14.1475H17.0003C15.8129 14.1475 14.8503 13.1849 14.8503 11.9975Z" fill="white"/>
</g>
</svg>
